<svg width="101" height="96" viewBox="0 0 101 96" fill="none" xmlns="http://www.w3.org/2000/svg">
<g filter="url(#filter0_d_20_169)">
<ellipse cx="50.4" cy="44" rx="40.4" ry="38" fill="white"/>
<path d="M62.7997 40.8V44C62.7997 50.5272 57.9137 55.9132 51.5997 56.7008V60H56.3997C56.8241 60 57.231 60.1686 57.5311 60.4686C57.8311 60.7687 57.9997 61.1756 57.9997 61.6C57.9997 62.0243 57.8311 62.4313 57.5311 62.7314C57.231 63.0314 56.8241 63.2 56.3997 63.2H43.5997C43.1754 63.2 42.7684 63.0314 42.4683 62.7314C42.1683 62.4313 41.9997 62.0243 41.9997 61.6C41.9997 61.1756 42.1683 60.7687 42.4683 60.4686C42.7684 60.1686 43.1754 60 43.5997 60H48.3997V56.7008C42.0857 55.9132 37.1997 50.5272 37.1997 44V40.8C37.1997 40.3756 37.3683 39.9687 37.6683 39.6686C37.9684 39.3686 38.3754 39.2 38.7997 39.2C39.2241 39.2 39.631 39.3686 39.9311 39.6686C40.2311 39.9687 40.3997 40.3756 40.3997 40.8V44C40.3997 49.302 44.6977 53.6 49.9997 53.6C55.3017 53.6 59.5997 49.302 59.5997 44V40.8C59.5997 40.3756 59.7683 39.9687 60.0683 39.6686C60.3684 39.3686 60.7754 39.2 61.1997 39.2C61.6241 39.2 62.031 39.3686 62.3311 39.6686C62.6311 39.9687 62.7997 40.3756 62.7997 40.8ZM49.9997 24.8C46.4649 24.8 43.5997 27.6652 43.5997 31.2V44C43.5997 47.5348 46.4649 50.4 49.9997 50.4C53.5345 50.4 56.3997 47.5348 56.3997 44V31.2C56.3997 27.6652 53.5345 24.8 49.9997 24.8ZM49.9997 47.2C49.151 47.2 48.3371 46.8628 47.737 46.2627C47.1368 45.6626 46.7997 44.8487 46.7997 44V31.2C46.7997 30.3513 47.1368 29.5374 47.737 28.9372C48.3371 28.3371 49.151 28 49.9997 28C50.8484 28 51.6623 28.3371 52.2624 28.9372C52.8626 29.5374 53.1997 30.3513 53.1997 31.2V44C53.1997 44.8487 52.8626 45.6626 52.2624 46.2627C51.6623 46.8628 50.8484 47.2 49.9997 47.2Z" fill="black"/>
</g>
<defs>
<filter id="filter0_d_20_169" x="0" y="0" width="100.8" height="96" filterUnits="userSpaceOnUse" color-interpolation-filters="sRGB">
<feFlood flood-opacity="0" result="BackgroundImageFix"/>
<feColorMatrix in="SourceAlpha" type="matrix" values="0 0 0 0 0 0 0 0 0 0 0 0 0 0 0 0 0 0 127 0" result="hardAlpha"/>
<feOffset dy="4"/>
<feGaussianBlur stdDeviation="5"/>
<feComposite in2="hardAlpha" operator="out"/>
<feColorMatrix type="matrix" values="0 0 0 0 0 0 0 0 0 0 0 0 0 0 0 0 0 0 0.7 0"/>
<feBlend mode="normal" in2="BackgroundImageFix" result="effect1_dropShadow_20_169"/>
<feBlend mode="normal" in="SourceGraphic" in2="effect1_dropShadow_20_169" result="shape"/>
</filter>
</defs>
</svg>
